Coordinates
version=1
nRows=6
nColumns=36
inDegrees=yes

Units are S.I. units (second, meters, Newtons, ...)
If the header above contains a line with 'inDegrees', this indicates whether rotational values are in degrees (yes) or radians (no).

endheader
time	pelvis_tilt	pelvis_list	pelvis_rotation	pelvis_tx	pelvis_ty	pelvis_tz	hip_flexion_r	hip_adduction_r	hip_rotation_r	knee_angle_r	knee_angle_r_beta	ankle_angle_r	subtalar_angle_r	mtp_angle_r	hip_flexion_l	hip_adduction_l	hip_rotation_l	knee_angle_l	knee_angle_l_beta	ankle_angle_l	subtalar_angle_l	mtp_angle_l	lumbar_extension	lumbar_bending	lumbar_rotation	arm_flex_r	arm_add_r	arm_rot_r	elbow_flex_r	pro_sup_r	arm_flex_l	arm_add_l	arm_rot_l	elbow_flex_l	pro_sup_l
      1.86666670	    -19.38510408	      2.77716539	     -0.07229023	      1.50287444	      0.77991448	      0.10782471	     70.55480743	     -4.68096305	      3.58642422	     76.94728905	      1.34298354	     30.55634442	     -4.70308045	     -7.49999987	     68.17377436	     -6.56679813	      0.73207759	     76.94886705	      1.34301109	     30.76838383	     -7.51676387	     -7.49999987	    -32.23545766	     -1.37355834	     -2.97412322	     36.05253777	    -14.55379298	     -4.93925719	     48.94043579	     71.95344447	     42.88300396	    -18.94705825	      5.04364106	     43.03008014	     89.16374391
      1.88333330	    -22.83458481	      2.67270353	      0.26681668	      1.48858368	      0.77400983	      0.11192502	     75.21137009	     -4.26200597	      3.62539394	     78.24348322	      1.36560640	     30.85122356	     -4.93007288	     -7.49999987	     73.22532795	     -6.37866171	      1.59746879	     78.72006545	      1.37392433	     30.79769689	     -8.38835554	     -7.49999987	    -31.41664456	     -1.84028115	     -1.46619090	     47.87695536	    -16.80464418	     -4.19121025	     56.61327936	     74.75147284	     57.23262194	    -17.84232435	     10.67183544	     47.34924516	     94.10837331
      1.90000000	    -25.68821382	      2.61103502	      0.19203285	      1.49734755	      0.77279260	      0.09687862	     78.14502185	     -4.34573511	      3.55464389	     78.10023705	      1.36310628	     31.26333253	     -3.98012671	     -7.49999987	     76.18772433	     -5.76760009	      2.20923832	     79.10915796	      1.38071527	     30.05416391	     -9.50990486	     -7.49999987	    -28.99492523	     -1.28023584	     -0.78668853	     56.22509673	    -20.73857248	      0.77592135	     62.86443653	     76.04845182	     64.80891175	    -17.45919882	     16.61354780	     54.24824335	     94.59403203
      1.91666670	    -26.94402960	      3.04141455	     -0.35628024	      1.50629658	      0.78265443	      0.08540817	     78.31380284	     -4.75591013	      3.89482480	     76.43001520	      1.33395541	     31.02983263	     -2.80059311	     -7.49999987	     75.96996149	     -4.92875902	      2.15569221	     77.70335421	      1.35617937	     28.74892598	    -10.84697883	     -7.49999987	    -28.00363961	     -1.13361084	     -0.00007757	     65.10786869	    -24.10424940	      6.94958359	     69.23810061	     77.19794662	     71.54822978	    -17.89472516	     23.00779874	     61.58312047	     94.19580956
      1.93333330	    -27.74314760	      3.35940236	     -0.70758135	      1.52915858	      0.77880630	      0.09132096	     77.63991447	     -4.87990763	      4.37558058	     75.37978017	      1.31562535	     31.36920434	     -2.24019923	     -7.49999987	     74.87284483	     -4.19010969	      2.45443296	     76.58349638	      1.33663416	     28.57585696	    -11.08531893	     -7.49999987	    -25.13609192	     -0.99020149	     -0.30653095	     70.20653397	    -25.55745507	     10.90715551	     74.71626852	     78.96431175	     75.36543289	    -20.01160568	     26.67349195	     70.35655909	     94.19211515
      1.95000000	    -28.45617324	      3.58428827	     -0.67659573	      1.52358042	      0.79218847	      0.08536487	     76.64087365	     -5.39541269	      4.57273817	     73.25821370	      1.27859703	     30.98383595	     -1.77350261	     -7.49999987	     73.84477595	     -3.29072919	      2.64762412	     74.59168036	      1.30187042	     27.68276214	    -11.72129247	     -7.49999987	    -22.74099505	     -0.17006478	     -1.08016012	     76.50798493	    -26.04138676	     15.21777370	     78.02080707	     83.40804898	     77.44030011	    -23.41488918	     28.66598653	     83.24522847	     94.37314260
